<svg id="Layer_1" data-name="Layer 1" xmlns="http://www.w3.org/2000/svg" viewBox="0 0 379.33 56.55"><defs><style>.cls-1{fill:#fff;}</style></defs><path class="cls-1" d="M44.18,20.43h9L66.83,58.21H57.69L55.3,51H41.59l-2.33,7.21H30.57ZM43.62,44.8h9.7L51,37.74c-.41-1.28-.76-2.53-1.07-3.73s-.56-2.27-.76-3.22c-.24-1.12-.44-2.15-.61-3.1h-.1q-.41,1.88-.81,3.66c-.28,1-.55,2.1-.84,3.27s-.59,2.21-.89,3.12Z" transform="translate(-14.03 -13.78)"/><path class="cls-1" d="M70.64,20.43h8.83l10,16.4c.57,1,1.16,2,1.75,3.17s1.14,2.21,1.65,3.23l1.78,3.55h.1c-.1-1.28-.19-2.59-.26-3.91-.06-1.11-.12-2.32-.15-3.6s0-2.47,0-3.56V20.43h8.28V58.21H93.64L83.79,42c-.58-.95-1.17-2-1.78-3.2s-1.17-2.28-1.67-3.3c-.61-1.18-1.21-2.39-1.78-3.61h-.1c.06,1.32.13,2.64.2,4q.11,1.66.18,3.6c0,1.29.07,2.47.07,3.56V58.21H70.64Z" transform="translate(-14.03 -13.78)"/><path class="cls-1" d="M109,20.43h15.74a18.23,18.23,0,0,1,7.18,1.37,15.64,15.64,0,0,1,5.51,3.86,16.93,16.93,0,0,1,3.51,6,24.24,24.24,0,0,1,1.22,7.87A23.52,23.52,0,0,1,141,47.21a16,16,0,0,1-3.46,5.87,15.48,15.48,0,0,1-5.63,3.78,20.42,20.42,0,0,1-7.67,1.35H109ZM123.55,50.9c3.28,0,5.73-1,7.34-2.95s2.41-4.76,2.41-8.38a14,14,0,0,0-2.41-8.6q-2.41-3.22-7.19-3.23h-6V50.9Z" transform="translate(-14.03 -13.78)"/><path class="cls-1" d="M153.86,44.09,140.92,20.43h9.49l4.06,7.92c.44.88.88,1.84,1.33,2.87s.84,2,1.21,2.92l1.22,3.2h.1c.41-1.05.83-2.12,1.27-3.2.38-.92.79-1.89,1.25-2.92s.9-2,1.34-2.87l4.12-7.92h9.14L162.5,44V58.21h-8.64Z" transform="translate(-14.03 -13.78)"/><path class="cls-1" d="M208.44,59.07a19,19,0,0,1-7.54-1.47A17.06,17.06,0,0,1,195,53.51a18.47,18.47,0,0,1-3.79-6.22,22.33,22.33,0,0,1-1.34-7.82,22.56,22.56,0,0,1,1.32-7.82A18.77,18.77,0,0,1,195,25.4a17,17,0,0,1,5.84-4.13,18.87,18.87,0,0,1,7.64-1.5,21.55,21.55,0,0,1,5.79.73,13.5,13.5,0,0,1,4.57,2.21,13.64,13.64,0,0,1,4,4.57,16.06,16.06,0,0,1,1.8,5.89H216a7.16,7.16,0,0,0-2.41-4.44A7.62,7.62,0,0,0,208.39,27a9,9,0,0,0-4.24.94,8.44,8.44,0,0,0-3,2.61,12.21,12.21,0,0,0-1.81,4,19.64,19.64,0,0,0-.61,5,17.18,17.18,0,0,0,.69,5,12.43,12.43,0,0,0,1.93,3.93,8.84,8.84,0,0,0,3,2.59,8.52,8.52,0,0,0,4,.94,7.61,7.61,0,0,0,5.54-2A7.77,7.77,0,0,0,216.31,45H225a14.64,14.64,0,0,1-1.42,5.35,16.6,16.6,0,0,1-3.15,4.45A13.67,13.67,0,0,1,215.35,58,20.06,20.06,0,0,1,208.44,59.07Z" transform="translate(-14.03 -13.78)"/><path class="cls-1" d="M246.63,59.12a19.64,19.64,0,0,1-7.77-1.47A16.9,16.9,0,0,1,233,53.54a18.19,18.19,0,0,1-3.73-6.25,22.79,22.79,0,0,1-1.3-7.82,23,23,0,0,1,1.3-7.87A17.87,17.87,0,0,1,233,25.38a17.31,17.31,0,0,1,5.89-4.11,20.74,20.74,0,0,1,15.49,0,17.41,17.41,0,0,1,5.89,4.11A17.87,17.87,0,0,1,264,31.6a23.2,23.2,0,0,1,1.29,7.87A23,23,0,0,1,264,47.29a18.19,18.19,0,0,1-3.73,6.25,17,17,0,0,1-5.89,4.11A19.53,19.53,0,0,1,246.63,59.12Zm.05-7.11a9.05,9.05,0,0,0,4.27-1,8.87,8.87,0,0,0,3-2.64,11.84,11.84,0,0,0,1.83-4,19.14,19.14,0,0,0,.61-5,19.41,19.41,0,0,0-.61-5,12.36,12.36,0,0,0-1.83-4,8.61,8.61,0,0,0-3-2.69,9.05,9.05,0,0,0-4.27-1,9.17,9.17,0,0,0-4.29,1,8.71,8.71,0,0,0-3.1,2.69,12.64,12.64,0,0,0-1.88,4,19,19,0,0,0-.63,5,18.71,18.71,0,0,0,.63,5,12.11,12.11,0,0,0,1.88,4,9,9,0,0,0,3.1,2.64A9.17,9.17,0,0,0,246.68,52Z" transform="translate(-14.03 -13.78)"/><path class="cls-1" d="M270.09,20.43h18a17.81,17.81,0,0,1,5.1.71,11.93,11.93,0,0,1,4.09,2.11,10,10,0,0,1,2.71,3.4,10.26,10.26,0,0,1,1,4.59,9.55,9.55,0,0,1-1.67,5.69A10.1,10.1,0,0,1,294,40.44v.15a8.14,8.14,0,0,1,4.18,2.56,9.6,9.6,0,0,1,1.76,4.75c.17,1.29.29,2.5.38,3.63s.17,2.15.25,3a18,18,0,0,0,.33,2.18,1.42,1.42,0,0,0,.66,1v.41H293a1.39,1.39,0,0,1-.58-1,20,20,0,0,1-.31-2c-.08-.8-.16-1.69-.23-2.67s-.15-2-.25-3.05a6.91,6.91,0,0,0-1.85-4.26,6.55,6.55,0,0,0-4.65-1.42h-6.4V58.21h-8.63Zm8.63,17h7.67A6.47,6.47,0,0,0,290.81,36a4.59,4.59,0,0,0,1.52-3.63,5,5,0,0,0-1.4-3.73,5.84,5.84,0,0,0-4.29-1.4h-7.92Z" transform="translate(-14.03 -13.78)"/><path class="cls-1" d="M305,51.2l14-17c.57-.68,1.22-1.4,1.93-2.16l2-2.16c.74-.77,1.51-1.54,2.28-2.28v-.15c-1,.06-1.94.12-2.89.15s-1.68.06-2.59.07l-2.49,0H306.4V20.43h29v6.8L322,43.69c-.65.77-1.36,1.59-2.14,2.43s-1.52,1.63-2.23,2.34L315.13,51v.15c1,0,2-.09,3.05-.15l2.77-.1q1.44-.06,2.61-.06h12.59v7.42H305Z" transform="translate(-14.03 -13.78)"/><path class="cls-1" d="M357.18,59.12a19.64,19.64,0,0,1-7.77-1.47,16.81,16.81,0,0,1-5.89-4.11,18.21,18.21,0,0,1-3.74-6.25,23,23,0,0,1-1.29-7.82,23.2,23.2,0,0,1,1.29-7.87,17.89,17.89,0,0,1,3.74-6.22,17.21,17.21,0,0,1,5.89-4.11,20.72,20.72,0,0,1,15.48,0,17.35,17.35,0,0,1,5.9,4.11,18,18,0,0,1,3.73,6.22,23.2,23.2,0,0,1,1.29,7.87,23,23,0,0,1-1.29,7.82,18.34,18.34,0,0,1-3.73,6.25,16.94,16.94,0,0,1-5.9,4.11A19.48,19.48,0,0,1,357.18,59.12Zm.05-7.11a9,9,0,0,0,4.26-1,8.81,8.81,0,0,0,3.05-2.64,12,12,0,0,0,1.83-4,19.58,19.58,0,0,0,.61-5,19.85,19.85,0,0,0-.61-5,12.57,12.57,0,0,0-1.83-4,8.56,8.56,0,0,0-3.05-2.69,9,9,0,0,0-4.26-1,9.17,9.17,0,0,0-4.29,1,8.71,8.71,0,0,0-3.1,2.69,12.43,12.43,0,0,0-1.88,4,19,19,0,0,0-.63,5,18.71,18.71,0,0,0,.63,5,11.91,11.91,0,0,0,1.88,4,9,9,0,0,0,3.1,2.64A9.17,9.17,0,0,0,357.23,52Z" transform="translate(-14.03 -13.78)"/><path class="cls-1" d="M373.57,61.89h10.24V21.08H373.57v-7.3h19.79V69.13H373.57Z" transform="translate(-14.03 -13.78)"/><path class="cls-1" d="M33.82,63.09H23.58V22.29H33.82V15H14V70.33H33.82Z" transform="translate(-14.03 -13.78)"/></svg>